<mxfile host="app.diagrams.net" modified="2024-07-18T19:48:49.923Z" agent="Mozilla/5.0 (Windows NT 10.0; Win64; x64) AppleWebKit/537.36 (KHTML, like Gecko) Chrome/126.0.0.0 Safari/537.36" version="24.7.1" etag="nOYqeEBQf5miwpXds5p2" type="github">
  <diagram name="Page-1" id="DMTpOGak5KQtPNzD_FNu">
    <mxGraphModel>
      <root>
        <mxCell id="0" />
        <mxCell id="1" parent="0" />
      </root>
    </mxGraphModel>
  </diagram>
</mxfile>
